<?xml version="1.0" encoding="UTF-8"?>
<svg width="16px" height="16px" viewBox="0 0 16 16" version="1.1" xmlns="http://www.w3.org/2000/svg" xmlns:xlink="http://www.w3.org/1999/xlink">
    <title>通知</title>
    <g id="页面-1" stroke="none" stroke-width="1" fill="none" fill-rule="evenodd">
        <g id="画板" transform="translate(-132, -120)" fill="currentColor" fill-rule="nonzero">
            <g id="通知" transform="translate(132, 120)">
                <rect id="矩形" opacity="0" x="0" y="0" width="16" height="16"></rect>
                <path d="M8,0.666671875 C8.99432812,0.666671875 9.817,1.45467187 9.88567187,2.448 C11.497,3.16767187 12.6286719,4.778 12.6286719,6.662 L12.6286719,9.83867187 C13.5543281,10.593 14,11.5863281 14,12.8196719 C14,13.094 13.76,13.3336719 13.4856719,13.3336719 L10,13.3336719 L9.99867187,13.4086719 C9.95894736,14.4988089 9.05298767,15.356036 7.96232072,15.3354854 C6.87165378,15.3149349 5.99862975,14.4241878 6,13.3333281 L2.51432813,13.3333281 C2.24,13.3333281 2,13.0933281 2,12.8193281 C2,11.6203281 2.44567187,10.5926719 3.37132812,9.839 L3.37132812,6.66232812 C3.37132812,4.77767187 4.503,3.16767187 6.11432813,2.448 C6.183,1.45467187 7.00567187,0.666671875 8,0.666671875 Z M9,13.3336719 L7,13.3333281 L7.00167188,13.392 C7.03294835,13.9322243 7.48827765,14.3495637 8.02917618,14.3337757 C8.5700747,14.3179877 9.00028656,13.8748007 9,13.3336719 Z M8,1.66667187 C7.53867188,1.66667187 7.14467188,2.04032812 7.112,2.517 L7.07067188,3.11632812 L6.522,3.36132812 C5.224,3.94067187 4.37132813,5.22232812 4.37132813,6.662 L4.37132813,10.3143437 L4.00267188,10.6143437 C3.45367188,11.0613281 3.13167188,11.6326719 3.03267188,12.3333281 L12.9686719,12.3333281 L12.952,12.2226719 C12.8393438,11.567 12.527,11.046 11.9973281,10.6143281 L11.6286719,10.3143281 L11.6286719,6.662 C11.6286719,5.222 10.776,3.94067187 9.478,3.36132812 L8.92932813,3.11632812 L8.888,2.517 C8.85534375,2.04032812 8.46132813,1.66667187 8,1.66667187 L8,1.66667187 Z" id="形状"></path>
            </g>
        </g>
    </g>
</svg>
