<?xml version="1.0" encoding="UTF-8"?>
<svg width="14.9282032px" height="14.6905989px" viewBox="0 0 14.9282032 14.6905989" version="1.1" xmlns="http://www.w3.org/2000/svg" xmlns:xlink="http://www.w3.org/1999/xlink">
    <title>dataset</title>
    <g id="页面-1" stroke="none" stroke-width="1" fill="none" fill-rule="evenodd">
        <g id="数据集" transform="translate(-56.5359, -412.1547)">
            <g id="编组-8" transform="translate(12, 399)">
                <g id="编组-17备份" transform="translate(44, 12)">
                    <rect id="矩形" x="0" y="0" width="16" height="15.9999997"></rect>
                    <g id="编组-16" transform="translate(0, 1)" stroke="currentColor">
                        <path d="M8,0.654700538 L10.7141016,2.14433757 C10.7914519,2.18899577 10.8539519,2.25259074 10.8971143,2.32735027 C10.9402767,2.4021098 10.9641016,2.48803387 10.9641016,2.57735027 L10.9641016,5.42264973 C10.9641016,5.60128253 10.8688022,5.76634604 10.7141016,5.85566243 L8.25,7.27831216 C8.09529946,7.36762856 7.90470054,7.36762856 7.75,7.27831216 L5.28589838,5.85566243 C5.13119785,5.76634604 5.03589838,5.60128253 5.03589838,5.42264973 L5.03589838,2.57735027 C5.03589838,2.39871747 5.13119785,2.23365396 5.28589838,2.14433757 L7.75,0.721687836 C7.82735027,0.677029638 7.91367513,0.654700538 8,0.654700538 Z" id="多边形备份"></path>
                        <path d="M4,7.65470054 L6.71410162,9.14433757 C6.79145188,9.18899577 6.85395188,9.25259074 6.89711432,9.32735027 C6.94027675,9.4021098 6.96410162,9.48803387 6.96410162,9.57735027 L6.96410162,12.4226497 C6.96410162,12.6012825 6.86880215,12.766346 6.71410162,12.8556624 L4.25,14.2783122 C4.09529946,14.3676286 3.90470054,14.3676286 3.75,14.2783122 L1.28589838,12.8556624 C1.13119785,12.766346 1.03589838,12.6012825 1.03589838,12.4226497 L1.03589838,9.57735027 C1.03589838,9.48803387 1.05972325,9.4021098 1.10288568,9.32735027 C1.14604812,9.25259074 1.20854812,9.18899577 1.28589838,9.14433757 L3.75,7.72168784 C3.82735027,7.67702964 3.91367513,7.65470054 4,7.65470054 Z" id="多边形备份-2"></path>
                        <path d="M12,7.65470054 L14.7141016,9.14433757 C14.7914519,9.18899577 14.8539519,9.25259074 14.8971143,9.32735027 C14.9402767,9.4021098 14.9641016,9.48803387 14.9641016,9.57735027 L14.9641016,12.4226497 C14.9641016,12.5119661 14.9402767,12.5978902 14.8971143,12.6726497 C14.8539519,12.7474093 14.7914519,12.8110042 14.7141016,12.8556624 L12.25,14.2783122 C12.0952995,14.3676286 11.9047005,14.3676286 11.75,14.2783122 L9.28589838,12.8556624 C9.20854812,12.8110042 9.14604812,12.7474093 9.10288568,12.6726497 C9.05972325,12.5978902 9.03589838,12.5119661 9.03589838,12.4226497 L9.03589838,9.57735027 C9.03589838,9.48803387 9.05972325,9.4021098 9.10288568,9.32735027 C9.14604812,9.25259074 9.20854812,9.18899577 9.28589838,9.14433757 L11.75,7.72168784 C11.8273503,7.67702964 11.9136751,7.65470054 12,7.65470054 Z" id="多边形备份-3"></path>
                    </g>
                </g>
            </g>
        </g>
    </g>
</svg>
