<?xml version="1.0" encoding="UTF-8"?>
<svg width="43px" height="50px" viewBox="0 0 43 50" version="1.1" xmlns="http://www.w3.org/2000/svg" xmlns:xlink="http://www.w3.org/1999/xlink">
    <title>编组备份 3</title>
    <defs>
        <path d="M4,0 L26,0 L26,0 L39,11 L39,44 C39,46.209139 37.209139,48 35,48 L4,48 C1.790861,48 -1.06172613e-15,46.209139 0,44 L0,4 C-2.705415e-16,1.790861 1.790861,-9.26455379e-16 4,0 Z" id="path-1"></path>
        <linearGradient x1="50%" y1="42.1603731%" x2="18.0796887%" y2="86.369128%" id="linearGradient-3">
            <stop stop-color="#BDE0AC" offset="0%"></stop>
            <stop stop-color="#96D074" offset="100%"></stop>
        </linearGradient>
        <path d="M26,0 L39,11 L30.026853,11.0602404 C27.8177638,11.075071 26.0149207,9.29627282 26.0000901,7.0871836 C26.00003,7.07823272 26,7.06928165 26,7.06033056 L26,0 L26,0 Z" id="path-4"></path>
        <filter x="-53.8%" y="-45.1%" width="207.7%" height="226.0%" filterUnits="objectBoundingBox" id="filter-5">
            <feOffset dx="0" dy="2" in="SourceAlpha" result="shadowOffsetOuter1"></feOffset>
            <feGaussianBlur stdDeviation="2" in="shadowOffsetOuter1" result="shadowBlurOuter1"></feGaussianBlur>
            <feColorMatrix values="0 0 0 0 0.376470588   0 0 0 0 0.643137255   0 0 0 0 0.207843137  0 0 0 1 0" type="matrix" in="shadowBlurOuter1"></feColorMatrix>
        </filter>
    </defs>
    <g id="页面-1" stroke="none" stroke-width="1" fill="none" fill-rule="evenodd">
        <g id="画板" transform="translate(-337, -162)">
            <g id="编组备份-3" transform="translate(337, 164)">
                <g id="矩形">
                    <mask id="mask-2" fill="white">
                        <use xlink:href="#path-1"></use>
                    </mask>
                    <use id="蒙版" fill="#60A435" xlink:href="#path-1"></use>
                    <rect fill="#7DBF53" mask="url(#mask-2)" x="0" y="38" width="39" height="10"></rect>
                    <g id="XLS" mask="url(#mask-2)" fill="#DBFDC9" fill-rule="nonzero">
                        <g transform="translate(12.924, 40.77)">
                            <polygon id="路径" points="0 4.23 1.344 2.112 0.108 0.066 0.894 0.066 1.818 1.698 1.854 1.698 2.832 0.066 3.588 0.066 2.31 2.076 3.63 4.23 2.838 4.23 1.848 2.526 1.812 2.526 0.768 4.23"></polygon>
                            <polygon id="路径备份" points="10 4.23 11.344 2.112 10.108 0.066 10.894 0.066 11.818 1.698 11.854 1.698 12.832 0.066 13.588 0.066 12.31 2.076 13.63 4.23 12.838 4.23 11.848 2.526 11.812 2.526 10.768 4.23"></polygon>
                            <polygon id="路径" points="4.956 3.63 6.708 3.63 6.708 4.23 4.284 4.23 4.284 0.066 4.956 0.066"></polygon>
                            <path d="M7.188,4.134 L7.188,3.522 C7.324,3.57 7.506,3.612 7.734,3.648 C7.962,3.684 8.186,3.702 8.406,3.702 C8.71,3.702 8.93,3.655 9.066,3.561 C9.202,3.467 9.27,3.306 9.27,3.078 C9.27,2.926 9.247,2.807 9.201,2.721 C9.155,2.635 9.071,2.564 8.949,2.508 C8.827,2.452 8.64,2.394 8.388,2.334 C8.084,2.262 7.851,2.182 7.689,2.094 C7.527,2.006 7.41,1.891 7.338,1.749 C7.266,1.607 7.23,1.412 7.23,1.164 C7.23,0.768 7.349,0.475 7.587,0.285 C7.825,0.095 8.184,0 8.664,0 C8.868,0 9.067,0.015 9.261,0.045 C9.455,0.075 9.608,0.11 9.72,0.15 L9.72,0.738 C9.6,0.694 9.441,0.656 9.243,0.624 C9.045,0.592 8.858,0.576 8.682,0.576 C8.398,0.576 8.196,0.616 8.076,0.696 C7.956,0.776 7.896,0.928 7.896,1.152 C7.896,1.276 7.914,1.373 7.95,1.443 C7.986,1.513 8.06,1.574 8.172,1.626 C8.284,1.678 8.458,1.732 8.694,1.788 C9.022,1.864 9.274,1.951 9.45,2.049 C9.626,2.147 9.752,2.276 9.828,2.436 C9.904,2.596 9.942,2.812 9.942,3.084 C9.942,3.488 9.816,3.79 9.564,3.99 C9.312,4.19 8.93,4.29 8.418,4.29 C8.182,4.29 7.949,4.274 7.719,4.242 C7.489,4.21 7.312,4.174 7.188,4.134 Z" id="路径"></path>
                        </g>
                    </g>
                    <g id="X" mask="url(#mask-2)" fill="#FFFFFF" fill-rule="nonzero">
                        <g transform="translate(14.537, 16.508)" id="路径">
                            <polygon points="0 12.492 4.032 6.138 0.324 0 2.682 0 5.454 4.896 5.562 4.896 8.496 0 10.764 0 6.93 6.03 10.89 12.492 8.514 12.492 5.544 7.38 5.436 7.38 2.304 12.492"></polygon>
                        </g>
                    </g>
                </g>
                <g id="矩形">
                    <use fill="black" fill-opacity="1" filter="url(#filter-5)" xlink:href="#path-4"></use>
                    <use fill="url(#linearGradient-3)" fill-rule="evenodd" xlink:href="#path-4"></use>
                </g>
            </g>
        </g>
    </g>
</svg>