<?xml version="1.0" encoding="UTF-8"?>
<svg width="43px" height="50px" viewBox="0 0 43 50" version="1.1" xmlns="http://www.w3.org/2000/svg" xmlns:xlink="http://www.w3.org/1999/xlink">
    <title>markdown</title>
    <defs>
        <path d="M4,0 L26,0 L26,0 L39,11 L39,44 C39,46.209139 37.209139,48 35,48 L4,48 C1.790861,48 -1.06172613e-15,46.209139 0,44 L0,4 C-2.705415e-16,1.790861 1.790861,-9.26455379e-16 4,0 Z" id="path-1"></path>
        <linearGradient x1="50%" y1="42.1603731%" x2="18.0796887%" y2="86.369128%" id="linearGradient-3">
            <stop stop-color="#DAEAFF" offset="0%"></stop>
            <stop stop-color="#9DC8FF" offset="100%"></stop>
        </linearGradient>
        <path d="M26,0 L39,11 L30.026853,11.0602404 C27.8177638,11.075071 26.0149207,9.29627282 26.0000901,7.0871836 C26.00003,7.07823272 26,7.06928165 26,7.06033056 L26,0 L26,0 Z" id="path-4"></path>
        <filter x="-53.8%" y="-45.1%" width="207.7%" height="226.0%" filterUnits="objectBoundingBox" id="filter-5">
            <feOffset dx="0" dy="2" in="SourceAlpha" result="shadowOffsetOuter1"></feOffset>
            <feGaussianBlur stdDeviation="2" in="shadowOffsetOuter1" result="shadowBlurOuter1"></feGaussianBlur>
            <feColorMatrix values="0 0 0 0 0.234610219   0 0 0 0 0.452362777   0 0 0 0 0.878198596  0 0 0 0.322743663 0" type="matrix" in="shadowBlurOuter1"></feColorMatrix>
        </filter>
    </defs>
    <g id="页面-1" stroke="none" stroke-width="1" fill="none" fill-rule="evenodd">
        <g id="画板" transform="translate(-438, -162)">
            <g id="markdown" transform="translate(438, 164)">
                <g id="矩形">
                    <mask id="mask-2" fill="white">
                        <use xlink:href="#path-1"></use>
                    </mask>
                    <use id="蒙版" fill="#4E9BFD" xlink:href="#path-1"></use>
                    <rect fill="#6BACFF" mask="url(#mask-2)" x="0" y="38" width="39" height="10"></rect>
                    <text id="Markdown" mask="url(#mask-2)" font-family="AlibabaPuHuiTi_2_65_Medium, Alibaba PuHuiTi 2.0" font-size="6" font-weight="400" fill="#E8F2FF">
                        <tspan x="5" y="45">Markdown</tspan>
                    </text>
                    <g id="W" mask="url(#mask-2)">
                        <g transform="translate(13.001, 15.628)" id="M">
                            <polygon id="路径" fill="#FFFFFF" fill-rule="nonzero" points="0 0 2.88 0 6.42 8.94 6.54 8.94 10.08 0 12.92 0 12.92 13.88 11.12 13.88 11.12 1.82 11 1.82 7.44 10.74 5.48 10.74 1.88 1.82 1.76 1.82 1.76 13.88 0 13.88"></polygon>
                        </g>
                    </g>
                </g>
                <g id="矩形">
                    <use fill="black" fill-opacity="1" filter="url(#filter-5)" xlink:href="#path-4"></use>
                    <use fill="url(#linearGradient-3)" fill-rule="evenodd" xlink:href="#path-4"></use>
                </g>
            </g>
        </g>
    </g>
</svg>