<?xml version="1.0" encoding="UTF-8"?>
<svg width="16px" height="16px" viewBox="0 0 16 16" version="1.1" xmlns="http://www.w3.org/2000/svg" xmlns:xlink="http://www.w3.org/1999/xlink">
    <title>合并</title>
    <g id="页面-1" stroke="none" stroke-width="1" fill="none" fill-rule="evenodd">
        <g id="数据集" transform="translate(-374.5, -353)" fill="currentColor" fill-rule="nonzero">
            <g id="Group-7-Copy备份-38" transform="translate(233, 164)">
                <g id="编组-26" transform="translate(16, 179)">
                    <g id="编组-2" transform="translate(22, 8)">
                        <g id="合并" transform="translate(103.5, 2)">
                            <rect id="矩形" opacity="0" x="0" y="0" width="16" height="16"></rect>
                            <path d="M5.95435938,9.38847885 C5.84796015,9.38877371 5.74589524,9.34634395 5.67106445,9.27070508 L5.65788477,9.25670508 C5.49584236,9.08483486 5.49049789,8.81810819 5.64552539,8.63988477 L6.26482031,7.98764063 L3.19306445,7.98764063 L3.19306445,7.09247461 L6.25823047,7.09247461 L5.65129492,6.45341016 C5.4897449,6.28165775 5.48440482,6.01550438 5.63893555,5.83741016 L5.65129492,5.82258984 C5.72479078,5.74126702 5.82842404,5.69364655 5.9380014,5.69084549 C6.04757876,5.68804442 6.15350968,5.73030793 6.23106445,5.80776953 L7.87975586,7.54376953 L6.25082031,9.25671875 C6.17540447,9.34103341 6.06747983,9.38899826 5.95435938,9.38847885 M10.6155254,9.38850598 C10.5088468,9.38899047 10.4064509,9.34654397 10.3314238,9.27070508 L8.68351172,7.53552539 L10.3108066,5.82257617 C10.3843044,5.74125519 10.4879387,5.69363724 10.5975161,5.69083876 C10.7070934,5.68804028 10.8130232,5.73030621 10.8905762,5.80776953 L10.9029219,5.82258984 C11.0641377,5.99276264 11.0698404,6.25751784 10.9161016,6.43447461 L10.2959863,7.08670508 L13.3619863,7.08670508 L13.3619863,7.98764063 L10.2984746,7.98764063 L10.9045898,8.62670508 C11.065952,8.79617305 11.0716644,9.06065869 10.9177695,9.23693555 L10.9045898,9.25176953 L10.9045898,9.25835938 C10.8318361,9.34230203 10.725779,9.38990591 10.6147051,9.38850598 M2.69729492,14.2942305 C2.13070508,14.2456406 1.69588477,13.7589355 1.69588477,13.1495254 L1.69588477,2.27647461 C1.69588477,1.63411523 2.17764063,1.126 2.79117969,1.126 L6.45506445,1.126 C7.06858984,1.126 7.55035938,1.63164063 7.55035938,2.27729492 L7.55035938,3.42942383 L6.69388477,3.42942383 L6.69388477,2.27729492 C6.69514528,2.21106895 6.67165166,2.14675523 6.628,2.09693555 C6.58282507,2.05028543 6.52157057,2.02260381 6.45670508,2.01952539 L2.79035938,2.01952539 C2.72579123,2.02144104 2.66456172,2.04865306 2.61987109,2.09529492 C2.57464373,2.14183293 2.55078502,2.20506992 2.554,2.26988477 L2.554,13.1330645 C2.554,13.2928203 2.63964063,13.3825762 2.79035938,13.3825762 L6.45506445,13.3825762 C6.51961909,13.3806606 6.58083694,13.3534592 6.62552539,13.306834 C6.67033721,13.2606974 6.69417213,13.1981431 6.69142383,13.1338848 L6.69142383,11.9825762 L7.54211523,11.9825762 L7.54211523,13.1330645 C7.54211523,13.7787051 7.06035938,14.2843594 6.44682031,14.2843594 L2.69647461,14.2843594 L2.69811523,14.2942305 L2.69729492,14.2942305 Z M10.114,14.3008203 C9.50129492,14.3008203 9.01952539,13.7951797 9.01952539,13.1495254 L9.01952539,11.9982305 L9.876,11.9982305 L9.876,13.1495391 C9.876,13.3084746 9.96164063,13.3990508 10.1123594,13.3990508 L13.7852949,13.3990508 C13.9131882,13.3822749 14.0118157,13.2781532 14.0216406,13.1495391 L14.0216406,2.28387109 C14.0216406,2.12492188 13.936,2.0343457 13.7852949,2.0343457 L10.114,2.0343457 C9.98610136,2.05111567 9.88746677,2.15523884 9.87764063,2.28385742 L9.87764063,3.47057617 L9.02117969,3.47057617 L9.02117969,2.28470508 C9.02117969,1.63906445 9.50293555,1.13341016 10.1164746,1.13341016 L13.7803594,1.13341016 C14.3938848,1.13341016 14.8756406,1.63906445 14.8756406,2.28471875 L14.8756406,13.1503594 C14.8756406,13.796 14.3938848,14.3016406 13.7803594,14.3016406 L10.114,14.3016406 L10.114,14.3008203 Z" id="形状"></path>
                        </g>
                    </g>
                </g>
            </g>
        </g>
    </g>
</svg>
