<?xml version="1.0" encoding="UTF-8"?>
<svg width="43px" height="50px" viewBox="0 0 43 50" version="1.1" xmlns="http://www.w3.org/2000/svg" xmlns:xlink="http://www.w3.org/1999/xlink">
    <title>编组</title>
    <defs>
        <path d="M4,0 L26,0 L26,0 L39,11 L39,44 C39,46.209139 37.209139,48 35,48 L4,48 C1.790861,48 -1.06172613e-15,46.209139 0,44 L0,4 C-2.705415e-16,1.790861 1.790861,-9.26455379e-16 4,0 Z" id="path-1"></path>
        <linearGradient x1="50%" y1="42.1603731%" x2="18.0796887%" y2="86.369128%" id="linearGradient-3">
            <stop stop-color="#FDDFE2" offset="0%"></stop>
            <stop stop-color="#FD9D9C" offset="100%"></stop>
        </linearGradient>
        <path d="M26,0 L39,11 L30.026853,11.0602404 C27.8177638,11.075071 26.0149207,9.29627282 26.0000901,7.0871836 C26.00003,7.07823272 26,7.06928165 26,7.06033056 L26,0 L26,0 Z" id="path-4"></path>
        <filter x="-53.8%" y="-45.1%" width="207.7%" height="226.0%" filterUnits="objectBoundingBox" id="filter-5">
            <feOffset dx="0" dy="2" in="SourceAlpha" result="shadowOffsetOuter1"></feOffset>
            <feGaussianBlur stdDeviation="2" in="shadowOffsetOuter1" result="shadowBlurOuter1"></feGaussianBlur>
            <feColorMatrix values="0 0 0 0 0.878198596   0 0 0 0 0.234610219   0 0 0 0 0.234610219  0 0 0 0.322743663 0" type="matrix" in="shadowBlurOuter1"></feColorMatrix>
        </filter>
    </defs>
    <g id="页面-1" stroke="none" stroke-width="1" fill="none" fill-rule="evenodd">
        <g id="画板" transform="translate(-181, -162)">
            <g id="编组" transform="translate(181, 164)">
                <g id="矩形">
                    <mask id="mask-2" fill="white">
                        <use xlink:href="#path-1"></use>
                    </mask>
                    <use id="蒙版" fill="#E6555C" xlink:href="#path-1"></use>
                    <rect fill="#E9666D" mask="url(#mask-2)" x="0" y="38" width="39" height="10"></rect>
                    <g id="PDF" mask="url(#mask-2)" fill="#FDC9CB" fill-rule="nonzero">
                        <g transform="translate(14.987, 40.836)">
                            <path d="M1.248,0 C1.648,0 1.962,0.047 2.19,0.141 C2.418,0.235 2.58,0.38 2.676,0.576 C2.772,0.772 2.82,1.034 2.82,1.362 C2.82,1.702 2.767,1.974 2.661,2.178 C2.555,2.382 2.387,2.53 2.157,2.622 C1.927,2.714 1.624,2.76 1.248,2.76 L0.672,2.76 L0.672,4.164 L0,4.164 L0,0 L1.248,0 Z M1.176,2.202 C1.424,2.202 1.615,2.177 1.749,2.127 C1.883,2.077 1.98,1.993 2.04,1.875 C2.1,1.757 2.13,1.588 2.13,1.368 C2.13,1.164 2.1,1.004 2.04,0.888 C1.98,0.772 1.881,0.688 1.743,0.636 C1.605,0.584 1.416,0.558 1.176,0.558 L0.672,0.558 L0.672,2.202 L1.176,2.202 Z" id="形状"></path>
                            <path d="M4.938,0 C5.378,0 5.743,0.056 6.033,0.168 C6.323,0.28 6.549,0.488 6.711,0.792 C6.873,1.096 6.954,1.526 6.954,2.082 C6.954,2.842 6.781,3.379 6.435,3.693 C6.089,4.007 5.59,4.164 4.938,4.164 L3.66,4.164 L3.66,0 L4.938,0 Z M4.914,3.576 C5.362,3.576 5.698,3.466 5.922,3.246 C6.146,3.026 6.258,2.638 6.258,2.082 C6.258,1.686 6.204,1.378 6.096,1.158 C5.988,0.938 5.837,0.786 5.643,0.702 C5.449,0.618 5.206,0.576 4.914,0.576 L4.332,0.576 L4.332,3.576 L4.914,3.576 Z" id="形状"></path>
                            <polygon id="路径" points="10.278 0.594 8.556 0.594 8.556 1.806 10.158 1.806 10.158 2.394 8.556 2.394 8.556 4.164 7.884 4.164 7.884 0 10.278 0"></polygon>
                        </g>
                    </g>
                </g>
                <g id="矩形">
                    <use fill="black" fill-opacity="1" filter="url(#filter-5)" xlink:href="#path-4"></use>
                    <use fill="url(#linearGradient-3)" fill-rule="evenodd" xlink:href="#path-4"></use>
                </g>
                <g id="pdf" transform="translate(10, 14)" fill="#FFFFFF" fill-rule="nonzero">
                    <rect id="矩形" opacity="0" x="0" y="0" width="20" height="20"></rect>
                    <path d="M19.04,12.64 C18.48,12.04 17.36,11.7 15.76,11.7 C14.9,11.7 13.92,11.78 12.84,11.98 C12.24,11.38 11.62,10.68 11.04,9.86 C10.62,9.28 10.26,8.68 9.94,8.08 C10.58,6.1 10.88,4.5 10.88,3.34 C10.88,2.04 10.42,0.68 9.06,0.68 C8.64,0.68 8.24,0.94 8.02,1.3 C7.42,2.4 7.68,4.8 8.74,7.16 C8.34,8.34 7.94,9.48 7.42,10.74 C6.98,11.8 6.46,12.92 5.92,13.92 C2.88,15.16 0.92,16.6 0.74,17.72 C0.66,18.14 0.8,18.54 1.1,18.84 C1.2,18.92 1.6,19.26 2.26,19.26 C4.28,19.26 6.4,15.94 7.48,13.92 C8.3,13.64 9.14,13.38 9.96,13.14 C10.86,12.88 11.78,12.68 12.6,12.54 C14.72,14.48 16.6,14.8 17.54,14.8 C18.7,14.8 19.12,14.32 19.26,13.92 C19.48,13.42 19.32,12.86 19.06,12.56 L19.04,12.64 L19.04,12.64 Z M17.96,13.46 C17.88,13.88 17.46,14.16 16.88,14.16 C16.72,14.16 16.58,14.14 16.42,14.1 C15.36,13.84 14.38,13.3 13.38,12.46 C14.36,12.3 15.18,12.26 15.7,12.26 C16.28,12.26 16.78,12.28 17.1,12.38 C17.48,12.46 18.08,12.72 17.96,13.46 L17.96,13.46 Z M12.1,12.14 C11.38,12.28 10.62,12.46 9.82,12.68 C9.18,12.86 8.52,13.04 7.86,13.28 C8.22,12.58 8.52,11.9 8.8,11.26 C9.14,10.46 9.4,9.66 9.68,8.9 C9.96,9.38 10.26,9.86 10.56,10.28 C11.06,10.94 11.58,11.58 12.1,12.14 Z M8.48,1.64 C8.6,1.42 8.82,1.3 9,1.3 C9.58,1.3 9.68,1.98 9.68,2.52 C9.68,3.42 9.4,4.8 8.94,6.38 C8.14,4.18 8.08,2.36 8.48,1.64 L8.48,1.64 Z M5.46,14.78 C4.06,17.14 2.7,18.62 1.88,18.62 C1.72,18.62 1.58,18.56 1.46,18.48 C1.3,18.32 1.22,18.12 1.26,17.88 C1.42,17.04 3,15.86 5.46,14.78 Z" id="形状"></path>
                </g>
            </g>
        </g>
    </g>
</svg>