<?xml version="1.0" encoding="UTF-8"?>
<svg width="16px" height="16.2px" viewBox="0 0 16 16.2" version="1.1" xmlns="http://www.w3.org/2000/svg" xmlns:xlink="http://www.w3.org/1999/xlink">
    <title>手动</title>
    <g id="页面-1" stroke="none" stroke-width="1" fill="currentColor" fill-rule="evenodd">
        <g id="数据集详情" transform="translate(-1268, -261.9)" fill-rule="nonzero">
            <g id="编组-18备份" transform="translate(1248, 244)">
                <g id="编组-12" transform="translate(20, 16)">
                    <g id="手动" transform="translate(0, 2)">
                        <rect id="矩形" fill="currentColor" opacity="0" x="0" y="0" width="16" height="15.9999219"></rect>
                        <path d="M12.8371094,6.21251654 L12.8819531,6.21251654 C13.7115625,6.21251654 14.3840469,6.88595075 14.3840469,7.71666545 L14.3840469,12.183878 C14.3840469,14.291399 12.6776719,16 10.5727656,16 L7.46375,16 C6.24510622,15.999768 5.10011667,15.4165547 4.383375,14.4309764 L1.341125,10.2500125 C0.931371677,9.68673505 0.96882278,8.91420986 1.43114063,8.39320902 L1.57254688,8.23385042 C2.10139063,7.63822833 3.0123125,7.58460359 3.60714063,8.11406976 C3.62148035,8.12681514 3.63555625,8.13985429 3.64935938,8.15317894 L4.22959375,8.71258246 C4.27239104,8.75389298 4.32986194,8.77648501 4.38933425,8.77537706 C4.44880657,8.7742691 4.5053961,8.74955215 4.546625,8.70667624 C4.58686149,8.66480038 4.6093172,8.60896937 4.60928125,8.55089575 L4.60928125,3.40651462 C4.60928125,2.5757843 5.28182813,1.90252196 6.11135938,1.90252196 L6.15620313,1.90252196 C6.9858125,1.90252196 7.65829688,2.57586242 7.65829688,3.40651462 L7.65829688,4.76661735 C7.87276071,4.65435645 8.1112907,4.59588782 8.35335938,4.59624318 L8.398125,4.59624318 C9.0874375,4.59624318 9.6683125,5.06116279 9.8450625,5.69494094 C10.0730307,5.56305374 10.3318175,5.49378622 10.5951875,5.49416067 L10.6400313,5.49416067 C11.2740625,5.49416067 11.8162969,5.88740875 12.0367031,6.44362479 C12.2761877,6.29224028 12.5537895,6.21209131 12.8371094,6.21253217 L12.8371094,6.21251654 Z M4.95640625,14.0129003 C5.5398101,14.8151376 6.471807,15.2898514 7.46375,15.2900191 L10.5727656,15.2900191 C12.2860781,15.2900191 13.6750156,13.8992603 13.6750156,12.1837218 L13.6750156,7.7165092 C13.6750156,7.27801134 13.3199063,6.92249745 12.8819531,6.92249745 L12.8371094,6.92249745 C12.3991563,6.92249745 12.0441406,7.27801134 12.0441406,7.7165092 L12.0441406,9.31036079 C12.0441406,9.71814005 11.4330938,9.71814005 11.4330938,9.31036079 L11.4330938,6.99823145 C11.4330938,6.55963985 11.0779844,6.20414158 10.6400469,6.20414158 L10.5952031,6.20414158 C10.1572344,6.20414158 9.80221875,6.55965547 9.80221875,6.99815333 L9.80221875,8.77162904 C9.80221875,9.1794083 9.1911875,9.1794083 9.1911875,8.77162904 L9.1911875,6.10031396 C9.1911875,5.66173798 8.8360625,5.30622409 8.398125,5.30622409 L8.35328125,5.30622409 C7.91532813,5.30622409 7.5603125,5.66173798 7.5603125,6.10023584 L7.5603125,8.2328973 C7.5603125,8.64067656 6.94926563,8.64067656 6.94926563,8.2328973 L6.94926563,3.40659274 C6.94926563,2.96800113 6.59415625,2.61240912 6.15620313,2.61240912 L6.11135938,2.61240912 C5.67342188,2.61240912 5.31839063,2.96800113 5.31839063,3.40651462 L5.31839063,8.55081762 C5.31843059,8.79246748 5.22490968,9.02474831 5.0574375,9.19895508 C4.6999375,9.57075014 4.109,9.58192196 3.73778125,9.22393934 L3.15754688,8.66445769 C3.01412794,8.52608522 2.82045363,8.45222979 2.62131505,8.45997197 C2.42217646,8.46771414 2.2348209,8.55638338 2.10257813,8.70547312 L1.96109375,8.86475359 C1.72028992,9.13610586 1.70076811,9.53846899 1.91417188,9.83185824 L4.95640625,14.0129003 Z M9.15710938,3.0722975 C9.15580724,3.26969844 8.99541401,3.42903637 8.79800781,3.42903637 C8.60060162,3.42903637 8.44020838,3.26969844 8.43890625,3.0722975 C8.43890625,1.77219447 7.38489063,0.718199618 6.08478125,0.718199618 C4.78467188,0.718199618 3.73067188,1.77219447 3.73067188,3.0722975 C3.73152187,3.20115584 3.66326401,3.32059123 3.55180837,3.38526702 C3.44035274,3.44994282 3.30278789,3.44994282 3.19133225,3.38526702 C3.07987662,3.32059123 3.01161875,3.20115584 3.0124609,3.0722975 C3.0124609,1.37550891 4.38798438,0 6.08478125,0 C7.78157813,0 9.15710938,1.37550891 9.15710938,3.0722975 L9.15710938,3.0722975 Z" id="形状" stroke="#323233" stroke-width="0.2" fill="#323233"></path>
                    </g>
                </g>
            </g>
        </g>
    </g>
</svg>
