<?xml version="1.0" encoding="UTF-8"?>
<svg width="43px" height="50px" viewBox="0 0 43 50" version="1.1" xmlns="http://www.w3.org/2000/svg" xmlns:xlink="http://www.w3.org/1999/xlink">
    <title>编组备份</title>
    <defs>
        <path d="M4,0 L26,0 L26,0 L39,11 L39,44 C39,46.209139 37.209139,48 35,48 L4,48 C1.790861,48 -1.06172613e-15,46.209139 0,44 L0,4 C-2.705415e-16,1.790861 1.790861,-9.26455379e-16 4,0 Z" id="path-1"></path>
        <linearGradient x1="50%" y1="42.1603731%" x2="18.0796887%" y2="86.369128%" id="linearGradient-3">
            <stop stop-color="#FDE7DF" offset="0%"></stop>
            <stop stop-color="#FDB69C" offset="100%"></stop>
        </linearGradient>
        <path d="M26,0 L39,11 L30.026853,11.0602404 C27.8177638,11.075071 26.0149207,9.29627282 26.0000901,7.0871836 C26.00003,7.07823272 26,7.06928165 26,7.06033056 L26,0 L26,0 Z" id="path-4"></path>
        <filter x="-53.8%" y="-45.1%" width="207.7%" height="226.0%" filterUnits="objectBoundingBox" id="filter-5">
            <feOffset dx="0" dy="2" in="SourceAlpha" result="shadowOffsetOuter1"></feOffset>
            <feGaussianBlur stdDeviation="2" in="shadowOffsetOuter1" result="shadowBlurOuter1"></feGaussianBlur>
            <feColorMatrix values="0 0 0 0 0.878198596   0 0 0 0 0.234610219   0 0 0 0 0.234610219  0 0 0 0.322743663 0" type="matrix" in="shadowBlurOuter1"></feColorMatrix>
        </filter>
    </defs>
    <g id="页面-1" stroke="none" stroke-width="1" fill="none" fill-rule="evenodd">
        <g id="画板" transform="translate(-233, -162)">
            <g id="编组备份" transform="translate(233, 164)">
                <g id="矩形">
                    <mask id="mask-2" fill="white">
                        <use xlink:href="#path-1"></use>
                    </mask>
                    <use id="蒙版" fill="#E66243" xlink:href="#path-1"></use>
                    <rect fill="#EF7D5D" mask="url(#mask-2)" x="0" y="38" width="39" height="10"></rect>
                    <g id="PPT" mask="url(#mask-2)" fill="#FDC9CB" fill-rule="nonzero">
                        <g transform="translate(15.254, 40.836)">
                            <path d="M1.248,0 C1.648,0 1.962,0.047 2.19,0.141 C2.418,0.235 2.58,0.38 2.676,0.576 C2.772,0.772 2.82,1.034 2.82,1.362 C2.82,1.702 2.767,1.974 2.661,2.178 C2.555,2.382 2.387,2.53 2.157,2.622 C1.927,2.714 1.624,2.76 1.248,2.76 L0.672,2.76 L0.672,4.164 L0,4.164 L0,0 L1.248,0 Z M1.176,2.202 C1.424,2.202 1.615,2.177 1.749,2.127 C1.883,2.077 1.98,1.993 2.04,1.875 C2.1,1.757 2.13,1.588 2.13,1.368 C2.13,1.164 2.1,1.004 2.04,0.888 C1.98,0.772 1.881,0.688 1.743,0.636 C1.605,0.584 1.416,0.558 1.176,0.558 L0.672,0.558 L0.672,2.202 L1.176,2.202 Z" id="形状"></path>
                            <path d="M4.908,0 C5.308,0 5.622,0.047 5.85,0.141 C6.078,0.235 6.24,0.38 6.336,0.576 C6.432,0.772 6.48,1.034 6.48,1.362 C6.48,1.702 6.427,1.974 6.321,2.178 C6.215,2.382 6.047,2.53 5.817,2.622 C5.587,2.714 5.284,2.76 4.908,2.76 L4.332,2.76 L4.332,4.164 L3.66,4.164 L3.66,0 L4.908,0 Z M4.836,2.202 C5.084,2.202 5.275,2.177 5.409,2.127 C5.543,2.077 5.64,1.993 5.7,1.875 C5.76,1.757 5.79,1.588 5.79,1.368 C5.79,1.164 5.76,1.004 5.7,0.888 C5.64,0.772 5.541,0.688 5.403,0.636 C5.265,0.584 5.076,0.558 4.836,0.558 L4.332,0.558 L4.332,2.202 L4.836,2.202 Z" id="形状"></path>
                            <polygon id="路径" points="9.912 0 9.912 0.594 8.742 0.594 8.742 4.164 8.07 4.164 8.07 0.594 6.9 0.594 6.9 0"></polygon>
                        </g>
                    </g>
                    <g id="P" mask="url(#mask-2)" fill="#FFFFFF" fill-rule="nonzero">
                        <g transform="translate(16.076, 16.508)" id="形状">
                            <path d="M3.744,0 C4.944,0 5.886,0.141 6.57,0.423 C7.254,0.705 7.74,1.14 8.028,1.728 C8.316,2.316 8.46,3.102 8.46,4.086 C8.46,5.106 8.301,5.922 7.983,6.534 C7.665,7.146 7.161,7.59 6.471,7.866 C5.781,8.142 4.872,8.28 3.744,8.28 L2.016,8.28 L2.016,12.492 L0,12.492 L0,0 L3.744,0 Z M3.528,6.606 C4.272,6.606 4.845,6.531 5.247,6.381 C5.649,6.231 5.94,5.979 6.12,5.625 C6.3,5.271 6.39,4.764 6.39,4.104 C6.39,3.492 6.3,3.012 6.12,2.664 C5.94,2.316 5.643,2.064 5.229,1.908 C4.815,1.752 4.248,1.674 3.528,1.674 L2.016,1.674 L2.016,6.606 L3.528,6.606 Z"></path>
                        </g>
                    </g>
                </g>
                <g id="矩形">
                    <use fill="black" fill-opacity="1" filter="url(#filter-5)" xlink:href="#path-4"></use>
                    <use fill="url(#linearGradient-3)" fill-rule="evenodd" xlink:href="#path-4"></use>
                </g>
            </g>
        </g>
    </g>
</svg>