<?xml version="1.0" encoding="UTF-8"?>
<svg width="14.879197px" height="14.1252262px" viewBox="0 0 14.879197 14.1252262" version="1.1" xmlns="http://www.w3.org/2000/svg" xmlns:xlink="http://www.w3.org/1999/xlink">
    <title>编组@2x</title>
    <g id="页面-1" stroke="none" stroke-width="1" fill="none" fill-rule="evenodd">
        <g id="编组" fill="currentColor" fill-rule="nonzero">
            <path d="M1.10790984,11.392113 C1.10790984,12.2981519 1.85369144,13.031731 2.76914151,13.031731 L5.72441189,13.031731 C6.02963166,13.0337819 6.27635339,13.2778509 6.27773371,13.5791035 C6.275663,13.8798681 6.02914126,14.1231824 5.72441189,14.1252262 L2.76914151,14.1252262 C1.24007637,14.1245366 0.000698673728,12.901284 0,11.392113 L0,2.73436296 C0,1.22471467 1.24085903,0 2.76914151,0 L5.01534959,0 C5.62818201,0 6.21189222,0.27743536 6.60314267,0.752324728 L7.1855867,1.47965527 C7.36285227,1.69585489 7.62875064,1.82207549 7.90984319,1.82207549 L12.1100554,1.82207549 C13.6383379,1.82207549 14.879197,3.04554046 14.879197,4.55518876 L14.879197,7.65446671 C14.8771263,7.95523136 14.6306045,8.19854571 14.3258751,8.20058947 C14.0201608,8.19922103 13.7726736,7.95495382 13.7712871,7.653217 L13.7712871,4.55518876 C13.7712871,3.64914985 13.0255055,2.91557074 12.1100554,2.91557074 L7.90984319,2.91557074 C7.29701077,2.91557074 6.71330055,2.63938509 6.3220501,2.16324601 L5.73960608,1.43591546 C5.56307107,1.21955222 5.29680998,1.09366702 5.01534959,1.09349524 L2.76914151,1.09349524 C1.85369143,1.09349524 1.10790983,1.82832405 1.10790984,2.73436296 L1.10790984,11.392113 Z" id="形状"></path>
            <g id="A" transform="translate(8.0742, 6.1111)">
                <path d="M2.745,0.234 C2.781,0.168 2.835,0.1125 2.907,0.0675 C2.979,0.0225 3.057,0 3.141,0 C3.225,0 3.303,0.0225 3.375,0.0675 C3.447,0.1125 3.501,0.168 3.537,0.234 L3.564,0.288 L6.264,7.182 C6.282,7.23 6.291,7.284 6.291,7.344 C6.291,7.47 6.2475,7.5765 6.1605,7.6635 C6.0735,7.7505 5.967,7.794 5.841,7.794 C5.745,7.794 5.6595,7.767 5.5845,7.713 C5.5095,7.659 5.454,7.59 5.418,7.506 L4.725,5.742 L1.566,5.742 L0.873,7.506 C0.837,7.59 0.7815,7.659 0.7065,7.713 C0.6315,7.767 0.546,7.794 0.45,7.794 C0.324,7.794 0.2175,7.7505 0.1305,7.6635 C0.0435,7.5765 0,7.47 0,7.344 C0,7.284 0.009,7.23 0.027,7.182 L2.718,0.288 L2.745,0.234 Z M4.374,4.842 L3.141,1.692 L1.917,4.842 L4.374,4.842 Z" id="形状"></path>
            </g>
            <path d="M3.94317717,7.99040547 C3.79609128,7.99040547 3.65502965,7.93273604 3.55102422,7.83008379 C3.44701879,7.72743153 3.38858915,7.58820519 3.38858915,7.44303298 L3.38858915,3.79763227 C3.40272805,3.50582534 3.64655262,3.27640665 3.94254407,3.27640665 C4.23853552,3.27640665 4.4823601,3.50582534 4.49649899,3.79763227 L4.49649899,7.44303298 C4.49649899,7.74485109 4.24897309,7.98971639 3.94317717,7.99040547 L3.94317717,7.99040547 Z M3.93937862,11.0884337 C3.53134093,11.0884337 3.20056102,10.7619575 3.20056102,10.3592286 C3.20056102,9.95649973 3.53134093,9.63002347 3.93937862,9.63002347 L3.94697571,9.63002347 C4.35501341,9.63002347 4.68579331,9.95649973 4.68579331,10.3592286 C4.68579331,10.7619575 4.35501341,11.0884337 3.94697571,11.0884337 L3.93937862,11.0884337 Z" id="形状"></path>
        </g>
    </g>
</svg>
