<?xml version="1.0" encoding="UTF-8"?>
<svg width="13.7620133px" height="13.3333333px" viewBox="0 0 13.7620133 13.3333333" version="1.1" xmlns="http://www.w3.org/2000/svg" xmlns:xlink="http://www.w3.org/1999/xlink">
    <title>编组 24备份 2</title>
    <g id="页面-1" stroke="none" stroke-width="1" fill="none" fill-rule="evenodd">
        <g id="画板" transform="translate(-152.5, -165.5)">
            <g id="编组-24备份-2" transform="translate(151, 164)">
                <rect id="矩形" x="0" y="0" width="16" height="16"></rect>
                <g id="编组-2" transform="translate(2, 2)">
                    <path d="M5.52095903,12 L2.15973003,12 C0.966944069,12 0,11.0330559 0,9.84026997 L0,2.15973003 C0,0.966944069 0.966944069,0 2.15973003,0 L9.84026997,0 C11.0330559,0 12,0.966944069 12,2.15973003 L12,5.29070495" id="形状结合" stroke="currentColor"></path>
                    <path d="M10.0953466,12.3333333 C11.5681059,12.3333333 12.7620133,11.139426 12.7620133,9.66666667 C12.7620133,8.19390733 11.5681059,7 10.0953466,7 C8.62258726,7 7.42867993,8.19390733 7.42867993,9.66666667 C7.42867993,11.139426 8.62258726,12.3333333 10.0953466,12.3333333 Z" id="椭圆形" stroke="currentColor"></path>
                    <path d="M10.0953466,10.6666667 C10.6476313,10.6666667 11.0953466,10.2189514 11.0953466,9.66666667 C11.0953466,9.11438192 10.6476313,8.66666667 10.0953466,8.66666667 C9.54306185,8.66666667 9.0953466,9.11438192 9.0953466,9.66666667 C9.0953466,10.2189514 9.54306185,10.6666667 10.0953466,10.6666667 Z" id="椭圆形" fill="currentColor" fill-rule="nonzero"></path>
                    <rect id="矩形备份-2" fill="currentColor" x="1.85301837" y="3.41875307" width="6" height="1" rx="0.5"></rect>
                    <rect id="矩形备份-3" fill="currentColor" x="1.85301837" y="6.41875307" width="4" height="1" rx="0.5"></rect>
                </g>
            </g>
        </g>
    </g>
</svg>
