<?xml version="1.0" encoding="UTF-8"?>
<svg width="43px" height="50px" viewBox="0 0 43 50" version="1.1" xmlns="http://www.w3.org/2000/svg" xmlns:xlink="http://www.w3.org/1999/xlink">
    <title>txt</title>
    <defs>
        <path d="M4,0 L26,0 L26,0 L39,11 L39,44 C39,46.209139 37.209139,48 35,48 L4,48 C1.790861,48 -1.06172613e-15,46.209139 0,44 L0,4 C-2.705415e-16,1.790861 1.790861,-9.26455379e-16 4,0 Z" id="path-1"></path>
        <linearGradient x1="50%" y1="42.1603731%" x2="18.0796887%" y2="86.369128%" id="linearGradient-3">
            <stop stop-color="#E1E5F2" offset="0%"></stop>
            <stop stop-color="#C2C7DB" offset="100%"></stop>
        </linearGradient>
        <path d="M26,0 L39,11 L30.026853,11.0602404 C27.8177638,11.075071 26.0149207,9.29627282 26.0000901,7.0871836 C26.00003,7.07823272 26,7.06928165 26,7.06033056 L26,0 L26,0 Z" id="path-4"></path>
        <filter x="-53.8%" y="-45.1%" width="207.7%" height="226.0%" filterUnits="objectBoundingBox" id="filter-5">
            <feOffset dx="0" dy="2" in="SourceAlpha" result="shadowOffsetOuter1"></feOffset>
            <feGaussianBlur stdDeviation="2" in="shadowOffsetOuter1" result="shadowBlurOuter1"></feGaussianBlur>
            <feColorMatrix values="0 0 0 0 0.836005268   0 0 0 0 0.868417122   0 0 0 0 0.961022418  0 0 0 1 0" type="matrix" in="shadowBlurOuter1"></feColorMatrix>
        </filter>
    </defs>
    <g id="页面-1" stroke="none" stroke-width="1" fill="none" fill-rule="evenodd">
        <g id="画板" transform="translate(-386, -162)">
            <g id="txt" transform="translate(386, 164)">
                <g id="矩形">
                    <mask id="mask-2" fill="white">
                        <use xlink:href="#path-1"></use>
                    </mask>
                    <use id="蒙版" fill="#DEE5F9" xlink:href="#path-1"></use>
                    <g id="T" mask="url(#mask-2)" fill="#4A4C53" fill-rule="nonzero">
                        <g transform="translate(14.34, 16.12)" id="路径">
                            <polygon points="10.04 0 10.04 1.98 6.14 1.98 6.14 12.88 3.9 12.88 3.9 1.98 0 1.98 0 0"></polygon>
                        </g>
                    </g>
                    <rect fill="#B8BECD" mask="url(#mask-2)" x="0" y="38" width="39" height="10"></rect>
                    <text id="TXT" mask="url(#mask-2)" font-family="AlibabaPuHuiTi_2_65_Medium, Alibaba PuHuiTi 2.0" font-size="6" font-weight="400" fill="#FFFFFF">
                        <tspan x="14" y="45">TXT</tspan>
                    </text>
                </g>
                <g id="矩形">
                    <use fill="black" fill-opacity="1" filter="url(#filter-5)" xlink:href="#path-4"></use>
                    <use fill="url(#linearGradient-3)" fill-rule="evenodd" xlink:href="#path-4"></use>
                </g>
            </g>
        </g>
    </g>
</svg>