<?xml version="1.0" encoding="UTF-8"?>
<svg width="15.9843902px" height="15.9843902px" viewBox="0 0 15.9843902 15.9843902" version="1.1" xmlns="http://www.w3.org/2000/svg" xmlns:xlink="http://www.w3.org/1999/xlink">
    <title>上传</title>
    <g id="页面-1" stroke="none" stroke-width="1" fill="currentColor" fill-rule="evenodd">
        <g id="数据集详情备份" transform="translate(-1268, -301)" fill="currentColor" fill-rule="nonzero">
            <g id="编组-18备份" transform="translate(1248, 244)">
                <g id="编组-2" transform="translate(20, 55)">
                    <g id="上传" transform="translate(0, 2)">
                        <rect id="矩形" opacity="0" x="0" y="0" width="15.9843902" height="15.9843902"></rect>
                        <path d="M13.3869268,14.9354146 L2.59746341,14.9354146 C1.74829268,14.9354146 0.99902439,14.1861463 0.99902439,13.2870244 L0.99902439,10.4398049 C0.99902439,10.1400976 1.19882927,9.94029268 1.49853659,9.94029268 C1.7982439,9.94029268 1.99804878,10.1400976 1.99804878,10.4398049 L1.99804878,13.2870244 C1.99804878,13.6366829 2.24780488,13.9363902 2.59746341,13.9363902 L13.436878,13.9363902 C13.7365854,13.9363902 14.0362927,13.6366829 14.0362927,13.2870244 L14.0362927,10.4398049 C14.0362927,10.1400976 14.2360976,9.94029268 14.5358049,9.94029268 C14.8355122,9.94029268 15.0353171,10.1400976 15.0353171,10.4398049 L15.0353171,13.2870244 C14.9853659,14.1861463 14.2860488,14.9354146 13.3869268,14.9354146 Z" id="路径"></path>
                        <path d="M7.99219512,11.9383415 C7.6924878,11.9383415 7.49268293,11.7385366 7.49268293,11.4388293 L7.49268293,1.44858537 C7.49268293,1.14887805 7.6924878,0.949073171 7.99219512,0.949073171 C8.29190244,0.949073171 8.49170732,1.14887805 8.49170732,1.44858537 L8.49170732,11.4388293 C8.49170732,11.7385366 8.29190244,11.9383415 7.99219512,11.9383415 Z" id="路径"></path>
                        <path d="M11.2390244,5.09502439 C11.0891707,5.09502439 10.9892683,5.04507317 10.8893659,4.94517073 L7.99219512,2.048 L5.09502439,4.94517073 C4.89521951,5.14497561 4.5955122,5.14497561 4.39570732,4.94517073 C4.19590244,4.74536585 4.19590244,4.44565854 4.39570732,4.24585366 L7.64253659,0.99902439 C7.84234146,0.799219512 8.14204878,0.799219512 8.34185366,0.99902439 L11.5886829,4.24585366 C11.7884878,4.44565854 11.7884878,4.74536585 11.5886829,4.94517073 C11.4887805,5.04507317 11.388878,5.09502439 11.2390244,5.09502439 Z" id="路径"></path>
                    </g>
                </g>
            </g>
        </g>
    </g>
</svg>
