<?xml version="1.0" encoding="UTF-8"?>
<svg width="43px" height="50px" viewBox="0 0 43 50" version="1.1" xmlns="http://www.w3.org/2000/svg" xmlns:xlink="http://www.w3.org/1999/xlink">
    <title>unknow备份</title>
    <defs>
        <path d="M4,0 L26,0 L26,0 L39,11 L39,44 C39,46.209139 37.209139,48 35,48 L4,48 C1.790861,48 -1.06172613e-15,46.209139 0,44 L0,4 C-2.705415e-16,1.790861 1.790861,-9.26455379e-16 4,0 Z" id="path-1"></path>
        <linearGradient x1="50%" y1="42.1603731%" x2="18.0796887%" y2="86.369128%" id="linearGradient-3">
            <stop stop-color="#BBF2DC" offset="0%"></stop>
            <stop stop-color="#74D0C0" offset="100%"></stop>
        </linearGradient>
        <path d="M26,0 L39,11 L30.026853,11.0602404 C27.8177638,11.075071 26.0149207,9.29627282 26.0000901,7.0871836 C26.00003,7.07823272 26,7.06928165 26,7.06033056 L26,0 L26,0 Z" id="path-4"></path>
        <filter x="-53.8%" y="-45.1%" width="207.7%" height="226.0%" filterUnits="objectBoundingBox" id="filter-5">
            <feOffset dx="0" dy="2" in="SourceAlpha" result="shadowOffsetOuter1"></feOffset>
            <feGaussianBlur stdDeviation="2" in="shadowOffsetOuter1" result="shadowBlurOuter1"></feGaussianBlur>
            <feColorMatrix values="0 0 0 0 0.160518204   0 0 0 0 0.771710824   0 0 0 0 0.522408571  0 0 0 1 0" type="matrix" in="shadowBlurOuter1"></feColorMatrix>
        </filter>
    </defs>
    <g id="页面-1" stroke="none" stroke-width="1" fill="none" fill-rule="evenodd">
        <g id="画板" transform="translate(-535, -162)">
            <g id="unknow备份" transform="translate(535, 164)">
                <g id="矩形">
                    <mask id="mask-2" fill="white">
                        <use xlink:href="#path-1"></use>
                    </mask>
                    <use id="蒙版" fill="#3ED698" xlink:href="#path-1"></use>
                    <rect fill="#57E1A9" mask="url(#mask-2)" x="0" y="38" width="39" height="10"></rect>
                    <text id="URL" mask="url(#mask-2)" font-family="AlibabaPuHuiTi_2_65_Medium, Alibaba PuHuiTi 2.0" font-size="6" font-weight="400" fill="#FFFFFF">
                        <tspan x="14" y="45">URL</tspan>
                    </text>
                    <g id="站外连接1" mask="url(#mask-2)" fill="#FFFFFF" fill-rule="nonzero">
                        <g transform="translate(10, 12)">
                            <rect id="矩形" stroke="none" opacity="0" x="0" y="0" width="20" height="20"></rect>
                            <path d="M5,17.6 C4.16751229,17.6230043 3.3629233,17.2989216 2.77880123,16.705317 C2.19467916,16.1117124 1.88359398,15.3020094 1.92,14.47 C1.94472042,13.6206365 2.30416781,12.8154743 2.92,12.23 L6.91,8.15 C7.49547432,7.53416781 8.30063649,7.17472042 9.15,7.15 C9.98533299,7.1368637 10.7914626,7.45715628 11.39,8.04 C11.6782901,8.33841118 11.6782901,8.81158882 11.39,9.11 C11.0971825,9.40245338 10.6228175,9.40245338 10.33,9.11 C10.0177373,8.81703923 9.59700244,8.66833121 9.17,8.7 C8.72970328,8.71664805 8.31188999,8.89877179 8,9.21 L3.89,13.29 C3.57176876,13.6093703 3.38907485,14.0392383 3.38,14.49 C3.36735548,14.9215426 3.52964185,15.3398808 3.83,15.65 C4.13992786,15.9569888 4.56423629,16.1201844 5,16.1 C5.45076172,16.0909251 5.88062974,15.9082312 6.2,15.59 L8.2,13.59 C8.49550975,13.3146411 8.95600972,13.3227661 9.2416218,13.6083782 C9.52723388,13.8939903 9.53535886,14.3544902 9.26,14.65 L7.26,16.65 C6.66264597,17.2541205 5.84957436,17.5958984 5,17.6 Z" id="路径" stroke="#FFFFFF" stroke-width="0.2"></path>
                            <path d="M10.8,12.8 C9.98046704,12.8075475 9.19193841,12.4870952 8.61,11.91 C8.31754662,11.6171825 8.31754662,11.1428175 8.61,10.85 C8.74928779,10.7070522 8.94041253,10.6264301 9.14,10.6264301 C9.33958747,10.6264301 9.53071221,10.7070522 9.67,10.85 C10.3365097,11.4596146 11.3657494,11.4331106 12,10.79 L16.08,6.71 C16.5380482,6.3095365 16.7349338,5.6873013 16.5906205,5.09624055 C16.4463073,4.50517979 15.9848202,4.04369274 15.3937595,3.89937947 C14.8026987,3.75506619 14.1804635,3.95195183 13.78,4.41 L11.78,6.41 C11.6407122,6.55294778 11.4495875,6.63356995 11.25,6.63356995 C11.0504125,6.63356995 10.8592878,6.55294778 10.72,6.41 C10.4275466,6.11718245 10.4275466,5.64281755 10.72,5.35 L12.72,3.35 C13.9398868,2.10396539 15.9371082,2.07715705 17.19,3.29 C18.4259254,4.52761153 18.4259254,6.53238847 17.19,7.77 L13.11,11.85 C12.498544,12.4636157 11.6662377,12.8059062 10.8,12.8 L10.8,12.8 Z" id="路径" stroke="#FFFFFF" stroke-width="0.2"></path>
                        </g>
                    </g>
                </g>
                <g id="矩形">
                    <use fill="black" fill-opacity="1" filter="url(#filter-5)" xlink:href="#path-4"></use>
                    <use fill="url(#linearGradient-3)" fill-rule="evenodd" xlink:href="#path-4"></use>
                </g>
            </g>
        </g>
    </g>
</svg>