<?xml version="1.0" encoding="UTF-8"?>
<svg width="43px" height="50px" viewBox="0 0 43 50" version="1.1" xmlns="http://www.w3.org/2000/svg" xmlns:xlink="http://www.w3.org/1999/xlink">
    <title>编组备份 2</title>
    <defs>
        <path d="M4,0 L26,0 L26,0 L39,11 L39,44 C39,46.209139 37.209139,48 35,48 L4,48 C1.790861,48 -1.06172613e-15,46.209139 0,44 L0,4 C-2.705415e-16,1.790861 1.790861,-9.26455379e-16 4,0 Z" id="path-1"></path>
        <linearGradient x1="50%" y1="42.1603731%" x2="18.0796887%" y2="86.369128%" id="linearGradient-3">
            <stop stop-color="#DFE8FD" offset="0%"></stop>
            <stop stop-color="#9CB2FD" offset="100%"></stop>
        </linearGradient>
        <path d="M26,0 L39,11 L30.026853,11.0602404 C27.8177638,11.075071 26.0149207,9.29627282 26.0000901,7.0871836 C26.00003,7.07823272 26,7.06928165 26,7.06033056 L26,0 L26,0 Z" id="path-4"></path>
        <filter x="-53.8%" y="-45.1%" width="207.7%" height="226.0%" filterUnits="objectBoundingBox" id="filter-5">
            <feOffset dx="0" dy="2" in="SourceAlpha" result="shadowOffsetOuter1"></feOffset>
            <feGaussianBlur stdDeviation="2" in="shadowOffsetOuter1" result="shadowBlurOuter1"></feGaussianBlur>
            <feColorMatrix values="0 0 0 0 0.234610219   0 0 0 0 0.288230864   0 0 0 0 0.878198596  0 0 0 0.322743663 0" type="matrix" in="shadowBlurOuter1"></feColorMatrix>
        </filter>
    </defs>
    <g id="页面-1" stroke="none" stroke-width="1" fill="none" fill-rule="evenodd">
        <g id="画板" transform="translate(-285, -162)">
            <g id="编组备份-2" transform="translate(285, 164)">
                <g id="矩形">
                    <mask id="mask-2" fill="white">
                        <use xlink:href="#path-1"></use>
                    </mask>
                    <use id="蒙版" fill="#4E6EFD" xlink:href="#path-1"></use>
                    <rect fill="#6C85FF" mask="url(#mask-2)" x="0" y="38" width="39" height="10"></rect>
                    <g id="DOC" mask="url(#mask-2)" fill="#C9DEFD" fill-rule="nonzero">
                        <g transform="translate(14.372, 40.776)">
                            <path d="M1.278,0.06 C1.718,0.06 2.083,0.116 2.373,0.228 C2.663,0.34 2.889,0.548 3.051,0.852 C3.213,1.156 3.294,1.586 3.294,2.142 C3.294,2.902 3.121,3.439 2.775,3.753 C2.429,4.067 1.93,4.224 1.278,4.224 L0,4.224 L0,0.06 L1.278,0.06 Z M1.254,3.636 C1.702,3.636 2.038,3.526 2.262,3.306 C2.486,3.086 2.598,2.698 2.598,2.142 C2.598,1.746 2.544,1.438 2.436,1.218 C2.328,0.998 2.177,0.846 1.983,0.762 C1.789,0.678 1.546,0.636 1.254,0.636 L0.672,0.636 L0.672,3.636 L1.254,3.636 Z" id="形状"></path>
                            <path d="M4.104,2.142 C4.104,1.594 4.172,1.164 4.308,0.852 C4.444,0.54 4.645,0.32 4.911,0.192 C5.177,0.064 5.518,0 5.934,0 C6.354,0 6.696,0.064 6.96,0.192 C7.224,0.32 7.424,0.54 7.56,0.852 C7.696,1.164 7.764,1.594 7.764,2.142 C7.764,2.694 7.696,3.126 7.56,3.438 C7.424,3.75 7.224,3.969 6.96,4.095 C6.696,4.221 6.354,4.284 5.934,4.284 C5.518,4.284 5.177,4.221 4.911,4.095 C4.645,3.969 4.444,3.749 4.308,3.435 C4.172,3.121 4.104,2.69 4.104,2.142 Z M7.056,2.142 C7.056,1.75 7.026,1.443 6.966,1.221 C6.906,0.999 6.796,0.834 6.636,0.726 C6.476,0.618 6.242,0.564 5.934,0.564 C5.63,0.564 5.397,0.618 5.235,0.726 C5.073,0.834 4.962,0.999 4.902,1.221 C4.842,1.443 4.812,1.75 4.812,2.142 C4.812,2.538 4.842,2.847 4.902,3.069 C4.962,3.291 5.072,3.454 5.232,3.558 C5.392,3.662 5.626,3.714 5.934,3.714 C6.242,3.714 6.476,3.662 6.636,3.558 C6.796,3.454 6.906,3.291 6.966,3.069 C7.026,2.847 7.056,2.538 7.056,2.142 Z" id="形状"></path>
                            <path d="M8.574,2.142 C8.574,1.374 8.743,0.825 9.081,0.495 C9.419,0.165 9.908,0 10.548,0 C10.896,0 11.206,0.042 11.478,0.126 L11.478,0.732 C11.21,0.636 10.91,0.588 10.578,0.588 C10.278,0.588 10.034,0.637 9.846,0.735 C9.658,0.833 9.518,0.995 9.426,1.221 C9.334,1.447 9.288,1.752 9.288,2.136 C9.288,2.544 9.332,2.86 9.42,3.084 C9.508,3.308 9.641,3.464 9.819,3.552 C9.997,3.64 10.236,3.684 10.536,3.684 C10.724,3.684 10.896,3.671 11.052,3.645 C11.208,3.619 11.366,3.578 11.526,3.522 L11.526,4.11 C11.398,4.162 11.246,4.204 11.07,4.236 C10.894,4.268 10.708,4.284 10.512,4.284 C10.092,4.284 9.742,4.223 9.462,4.101 C9.182,3.979 8.964,3.762 8.808,3.45 C8.652,3.138 8.574,2.702 8.574,2.142 Z" id="路径"></path>
                        </g>
                    </g>
                    <g id="W" mask="url(#mask-2)" fill="#FFFFFF" fill-rule="nonzero">
                        <g transform="translate(12.161, 16.508)" id="路径">
                            <polygon points="2.844 12.492 0 0 2.124 0 4.266 10.098 4.374 10.098 6.678 1.368 9.054 1.368 11.34 10.098 11.448 10.098 13.59 0 15.66 0 12.744 12.492 10.188 12.492 7.866 3.726 7.758 3.726 5.382 12.492"></polygon>
                        </g>
                    </g>
                </g>
                <g id="矩形">
                    <use fill="black" fill-opacity="1" filter="url(#filter-5)" xlink:href="#path-4"></use>
                    <use fill="url(#linearGradient-3)" fill-rule="evenodd" xlink:href="#path-4"></use>
                </g>
            </g>
        </g>
    </g>
</svg>